# xmcd CD database file
#
# Track frame offsets:
#	150
#	13942
#	33902
#	52742
#	66329
#	78331
#	98043
#	111196
#	126897
#	141872
#	157487
#	171628
#	183918
#	200474
#
# Disc length: 2866 seconds
#
# Revision: 0
# Processed by: cddbd v1.5.2PL0 Copyright (c) Steve Scherf et al.
# Submitted via: CDex 1.70beta2
#
DISCID=c60b300e
DTITLE=ניסן - שבוז על הבלוז
DYEAR=2006
DGENRE=Blues
TTITLE0=אוהב אותה
TTITLE1=הילה
TTITLE2=אילנה
TTITLE3=מתנכרת
TTITLE4=פריקית
TTITLE5=לא חיבקתי
TTITLE6=לא פרנואיד
TTITLE7=יהלי
TTITLE8=צדק
TTITLE9=סורגים
TTITLE10=תני סימן
TTITLE11=מיאו
TTITLE12=פוגה קטנה
TTITLE13=חלומית
EXTD=YEAR: 2006
EXTT0=
EXTT1=
EXTT2=
EXTT3=
EXTT4=
EXTT5=
EXTT6=
EXTT7=
EXTT8=
EXTT9=
EXTT10=
EXTT11=
EXTT12=
EXTT13=
PLAYORDER=
